<?xml version="1.0" encoding="utf-8"?>
<!-- Generator: Adobe Illustrator 27.0.0, SVG Export Plug-In . SVG Version: 6.00 Build 0)  -->
<svg version="1.1" id="Layer_1" xmlns="http://www.w3.org/2000/svg" xmlns:xlink="http://www.w3.org/1999/xlink" x="0px" y="0px"
	 viewBox="0 0 31.9 32" style="enable-background:new 0 0 31.9 32;" xml:space="preserve">
<style type="text/css">
	.st0{fill:#808080;}
</style>
<g>
	<path class="st0" d="M8.8,24.9H5.3v-3.6H1.7v-3.6h3.6v-3.6v-3.6V7.1V3.6V0h3.6h3.6h3.6v3.6h-3.6v3.6v3.6v3.6v3.6h3.6v3.6h-3.6v3.6
		H8.8z M23.1,17.8h-3.6h-3.6v-3.6h3.6v-3.6V7.1h3.6h3.6v3.6v3.6h-3.6V17.8z M19.5,32v-3.6h3.6V32H19.5z M23.1,28.4v-3.6v-3.6v-3.6
		h3.6v3.6h3.6v3.6h-3.6v3.6H23.1z"/>
</g>
</svg>
